<?xml version="1.0" encoding="UTF-8"?><svg width="" height="" stroke-width="1.5" viewBox="0 0 24 24" fill="none" xmlns="http://www.w3.org/2000/svg" color="#000000"><path d="M7.5 12l-2.004 2.672a2 2 0 00.126 2.552l3.784 4.128c.378.413.912.648 1.473.648H15.5c2.4 0 4-2 4-4 0 0 0 0 0 0V9.429M16.5 10v-.571c0-2.286 3-2.286 3 0" stroke="#000000" stroke-width="1.5" stroke-linecap="round" stroke-linejoin="round"></path><path d="M13.5 10V8.286c0-2.286 3-2.286 3 0V10M10.5 10V7.5c0-2.286 3-2.286 3 0 0 0 0 0 0 0V10M10.5 10V7.5 3.499A1.5 1.5 0 009 2v0a1.5 1.5 0 00-1.5 1.5V15" stroke="#000000" stroke-width="1.5" stroke-linecap="round" stroke-linejoin="round"></path></svg>